<svg width="200" height="32" viewBox="0 0 200 32" fill="none" xmlns="http://www.w3.org/2000/svg">
<path fill-rule="evenodd" clip-rule="evenodd" d="M27.3047 5.77647L20.2033 10.371L29.4077 12.6211L24.7351 31.7346L0 25.6878L4.67253 6.57427L13.5365 8.74118L9.78887 1.63218L12.885 0L17.1844 8.15555L25.4035 2.83788L27.3047 5.77647ZM25.1766 15.1898L7.24127 10.8053L4.23102 23.119L22.1664 27.5036L25.1766 15.1898ZM123.904 9.97284L127.094 10.8308L128.348 22.2708L135.41 13.0528L138.336 13.8448L139.854 25.3508L146.652 16.0668L149.842 16.9248L140.096 30.2568L137.302 29.5088L135.74 17.7168L128.48 27.1328L125.686 26.3848L123.904 9.97284ZM56.1332 11.2048L59.4332 12.0848L61.6112 24.1408L69.5092 14.7908L72.8092 15.6928L61.7872 28.6728L59.1912 27.9688L56.1332 11.2048ZM45.93 16.0228L40.54 14.5928L41.354 11.6008L55.082 15.2968L54.268 18.2668L48.9 16.8148L45.71 28.7168L42.74 27.9248L45.93 16.0228ZM77.888 26.4508C78.592 27.3455 79.5966 27.9688 80.902 28.3208C81.518 28.4822 82.0826 28.5628 82.596 28.5628C83.652 28.5628 84.554 28.2842 85.302 27.7268C86.05 27.1548 86.5633 26.3482 86.842 25.3068C86.9593 24.8668 87.018 24.4708 87.018 24.1188C87.018 23.2682 86.7613 22.5055 86.248 21.8308C85.7346 21.1415 85.0086 20.4815 84.07 19.8508C83.2193 19.2935 82.6326 18.8608 82.31 18.5528C81.9873 18.2448 81.826 17.9295 81.826 17.6068C81.826 17.4895 81.848 17.3648 81.892 17.2328C81.9653 16.9248 82.112 16.6902 82.332 16.5288C82.5666 16.3675 82.8526 16.2868 83.19 16.2868C83.4393 16.2868 83.718 16.3308 84.026 16.4188C84.6713 16.5948 85.1406 16.8882 85.434 17.2988C85.742 17.7095 85.8813 18.2522 85.852 18.9268L88.822 18.5308C88.866 17.2842 88.536 16.2135 87.832 15.3188C87.1426 14.4242 86.1453 13.8008 84.84 13.4488C84.224 13.2875 83.6593 13.2068 83.146 13.2068C82.09 13.2068 81.188 13.4928 80.44 14.0648C79.692 14.6222 79.1786 15.4215 78.9 16.4628C78.7826 16.9028 78.724 17.2988 78.724 17.6508C78.724 18.5015 78.9806 19.2715 79.494 19.9608C80.0073 20.6355 80.7333 21.2882 81.672 21.9188C82.5226 22.4762 83.1093 22.9088 83.432 23.2168C83.7546 23.5248 83.916 23.8402 83.916 24.1628C83.916 24.2802 83.894 24.4048 83.85 24.5368C83.7766 24.8448 83.6226 25.0795 83.388 25.2408C83.168 25.4022 82.8893 25.4828 82.552 25.4828C82.3026 25.4828 82.024 25.4388 81.716 25.3508C80.4546 25.0135 79.846 24.1775 79.89 22.8428L76.92 23.2388C76.876 24.4855 77.1986 25.5562 77.888 26.4508ZM92.6723 11.7768L95.6423 12.5688L94.0363 18.5308L100.57 20.2688L102.154 14.3288L105.146 15.1208L101.142 29.9928L98.1723 29.2008L99.7783 23.2388L93.2443 21.5008L91.6603 27.4408L88.6683 26.6488L92.6723 11.7768ZM108.389 26.8028C109.254 27.5068 110.266 28.0128 111.425 28.3208C112.129 28.5115 112.847 28.6068 113.581 28.6068C114.71 28.6068 115.773 28.3795 116.771 27.9248C117.768 27.4555 118.619 26.7882 119.323 25.9228C120.041 25.0575 120.555 24.0455 120.863 22.8868C121.053 22.1828 121.149 21.4642 121.149 20.7308C121.149 19.6015 120.914 18.5382 120.445 17.5408C119.99 16.5435 119.33 15.6928 118.465 14.9888C117.599 14.2702 116.587 13.7568 115.429 13.4488C114.725 13.2582 114.006 13.1628 113.273 13.1628C112.143 13.1628 111.08 13.3975 110.083 13.8668C109.085 14.3215 108.227 14.9815 107.509 15.8468C106.805 16.7122 106.299 17.7242 105.991 18.8828C105.8 19.5868 105.705 20.3055 105.705 21.0388C105.705 22.1682 105.932 23.2315 106.387 24.2288C106.856 25.2262 107.523 26.0842 108.389 26.8028ZM113.537 25.5268C113.141 25.5268 112.708 25.4682 112.239 25.3508C111.168 25.0722 110.325 24.5368 109.709 23.7448C109.093 22.9528 108.785 22.0435 108.785 21.0168C108.785 20.6062 108.843 20.1662 108.961 19.6968C109.239 18.6262 109.767 17.7828 110.545 17.1668C111.337 16.5508 112.246 16.2428 113.273 16.2428C113.757 16.2428 114.204 16.3015 114.615 16.4188C115.671 16.6975 116.507 17.2328 117.123 18.0248C117.753 18.8022 118.069 19.7042 118.069 20.7308C118.069 21.2148 118.01 21.6622 117.893 22.0728C117.614 23.1435 117.079 23.9868 116.287 24.6028C115.495 25.2188 114.578 25.5268 113.537 25.5268ZM157.782 24.9108L165.614 27.0008L166.054 29.6628L169.332 30.5428L166.428 13.8228L163.678 13.0748L152.81 26.0988L156.066 26.9788L157.782 24.9108ZM163.964 17.5188L165.02 23.6568L159.96 22.3148L163.964 17.5188ZM175.579 11.9748L181.409 13.5368C182.656 13.8742 183.639 14.5048 184.357 15.4288C185.091 16.3382 185.457 17.3942 185.457 18.5968C185.457 19.0368 185.384 19.5502 185.237 20.1368C184.915 21.3542 184.291 22.3295 183.367 23.0628C182.458 23.7815 181.402 24.1408 180.199 24.1408C179.745 24.1408 179.224 24.0675 178.637 23.9208L175.777 23.1508L174.589 27.6388L171.597 26.8468L175.579 11.9748ZM179.429 20.9508C179.723 21.0242 179.965 21.0608 180.155 21.0608C180.683 21.0608 181.131 20.9068 181.497 20.5988C181.879 20.2908 182.135 19.8728 182.267 19.3448C182.341 19.0808 182.377 18.8388 182.377 18.6188C182.377 18.1055 182.223 17.6655 181.915 17.2988C181.622 16.9175 181.189 16.6535 180.617 16.5068L177.757 15.7368L176.569 20.1808L179.429 20.9508ZM195.009 13.5368L189.179 11.9748L185.197 26.8468L188.189 27.6388L189.377 23.1508L192.237 23.9208C192.824 24.0675 193.344 24.1408 193.799 24.1408C195.002 24.1408 196.058 23.7815 196.967 23.0628C197.891 22.3295 198.514 21.3542 198.837 20.1368C198.984 19.5502 199.057 19.0368 199.057 18.5968C199.057 17.3942 198.69 16.3382 197.957 15.4288C197.238 14.5048 196.256 13.8742 195.009 13.5368ZM193.755 21.0608C193.564 21.0608 193.322 21.0242 193.029 20.9508L190.169 20.1808L191.357 15.7368L194.217 16.5068C194.789 16.6535 195.222 16.9175 195.515 17.2988C195.823 17.6655 195.977 18.1055 195.977 18.6188C195.977 18.8388 195.94 19.0808 195.867 19.3448C195.735 19.8728 195.478 20.2908 195.097 20.5988C194.73 20.9068 194.283 21.0608 193.755 21.0608Z" fill="white"/>
</svg>
